<mxfile host="app.diagrams.net" modified="2022-01-13T07:10:54.291Z" agent="5.0 (Windows NT 10.0; Win64; x64) AppleWebKit/537.36 (KHTML, like Gecko) Chrome/97.0.4692.71 Safari/537.36" etag="b1VXF06NlnGSSDHUb9X_" version="16.2.6" type="github">
  <diagram id="R2lEEEUBdFMjLlhIrx00" name="Page-1">
    <mxGraphModel dx="1422" dy="762" grid="1" gridSize="10" guides="1" tooltips="1" connect="1" arrows="1" fold="1" page="1" pageScale="1" pageWidth="850" pageHeight="1100" math="0" shadow="0" extFonts="Permanent Marker^https://fonts.googleapis.com/css?family=Permanent+Marker">
      <root>
        <mxCell id="0" />
        <mxCell id="1" parent="0" />
        <mxCell id="QznAec2zTXJdikByjwvT-8" value="Games" style="swimlane;childLayout=stackLayout;horizontal=1;startSize=30;horizontalStack=0;rounded=1;fontSize=14;fontStyle=0;strokeWidth=2;resizeParent=0;resizeLast=1;shadow=0;dashed=0;align=center;arcSize=14;" vertex="1" parent="1">
          <mxGeometry x="530" y="290" width="200" height="160" as="geometry" />
        </mxCell>
        <mxCell id="QznAec2zTXJdikByjwvT-16" value="- _id {Object Id}&#xa;- Name {String}&#xa;- Release Date {Date}&#xa;- Genre {String}&#xa;- Rating {String}&#xa;- User Score {Number}&#xa;- Reviews {[String]}" style="align=left;strokeColor=none;fillColor=none;spacingLeft=4;fontSize=12;verticalAlign=top;resizable=0;rotatable=0;part=1;" vertex="1" parent="QznAec2zTXJdikByjwvT-8">
          <mxGeometry y="30" width="200" height="130" as="geometry" />
        </mxCell>
        <mxCell id="QznAec2zTXJdikByjwvT-13" value="User" style="swimlane;childLayout=stackLayout;horizontal=1;startSize=30;horizontalStack=0;rounded=1;fontSize=14;fontStyle=0;strokeWidth=2;resizeParent=0;resizeLast=1;shadow=0;dashed=0;align=center;" vertex="1" parent="1">
          <mxGeometry x="170" y="280" width="200" height="180" as="geometry" />
        </mxCell>
        <mxCell id="QznAec2zTXJdikByjwvT-14" value="- _id {Object Id}&#xa;- Name {String}&#xa;- Location {String}&#xa;- Discord Id# {String}&#xa;- Favorite Genres {[String]}&#xa;-Â URL {String}&#xa;- e-mail {String}&#xa;- Status {String}&#xa;- Games {schema.types.object._id}" style="align=left;strokeColor=none;fillColor=none;spacingLeft=4;fontSize=12;verticalAlign=top;resizable=0;rotatable=0;part=1;" vertex="1" parent="QznAec2zTXJdikByjwvT-13">
          <mxGeometry y="30" width="200" height="150" as="geometry" />
        </mxCell>
        <mxCell id="QznAec2zTXJdikByjwvT-27" value="Embedded" style="edgeStyle=orthogonalEdgeStyle;rounded=0;orthogonalLoop=1;jettySize=auto;html=1;exitX=0.5;exitY=1;exitDx=0;exitDy=0;endArrow=ERmany;endFill=0;entryX=0.5;entryY=0;entryDx=0;entryDy=0;" edge="1" parent="1" source="QznAec2zTXJdikByjwvT-14" target="QznAec2zTXJdikByjwvT-29">
          <mxGeometry relative="1" as="geometry">
            <mxPoint x="270" y="580" as="targetPoint" />
          </mxGeometry>
        </mxCell>
        <mxCell id="QznAec2zTXJdikByjwvT-29" value="Post" style="swimlane;childLayout=stackLayout;horizontal=1;startSize=30;horizontalStack=0;rounded=1;fontSize=14;fontStyle=0;strokeWidth=2;resizeParent=0;resizeLast=1;shadow=0;dashed=0;align=center;" vertex="1" parent="1">
          <mxGeometry x="175" y="580" width="190" height="120" as="geometry" />
        </mxCell>
        <mxCell id="QznAec2zTXJdikByjwvT-30" value="- _id {Object Id}&#xa;- User {schema.types.object._id}&#xa;- Post Date {Date}&#xa;- Body {String}" style="align=left;strokeColor=none;fillColor=none;spacingLeft=4;fontSize=12;verticalAlign=top;resizable=0;rotatable=0;part=1;" vertex="1" parent="QznAec2zTXJdikByjwvT-29">
          <mxGeometry y="30" width="190" height="90" as="geometry" />
        </mxCell>
        <mxCell id="QznAec2zTXJdikByjwvT-31" value="Referenced" style="edgeStyle=orthogonalEdgeStyle;rounded=0;orthogonalLoop=1;jettySize=auto;html=1;exitX=1;exitY=0.5;exitDx=0;exitDy=0;entryX=0;entryY=0.5;entryDx=0;entryDy=0;endArrow=ERmany;endFill=0;" edge="1" parent="1" source="QznAec2zTXJdikByjwvT-14" target="QznAec2zTXJdikByjwvT-16">
          <mxGeometry relative="1" as="geometry" />
        </mxCell>
      </root>
    </mxGraphModel>
  </diagram>
</mxfile>
